<mxfile host="app.diagrams.net" agent="Mozilla/5.0 (Macintosh; Intel Mac OS X 10_15_7) AppleWebKit/605.1.15 (KHTML, like Gecko) Version/18.3 Safari/605.1.15" version="26.2.15">
  <diagram name="Class Diagram" id="class-diagram-1">
    <mxGraphModel dx="892" dy="1796" grid="1" gridSize="10" guides="1" tooltips="1" connect="1" arrows="1" fold="1" page="1" pageScale="1" pageWidth="827" pageHeight="1169" math="0" shadow="0">
      <root>
        <mxCell id="0" />
        <mxCell id="1" parent="0" />
        <mxCell id="tKw3tSr0yS0TjCiAPmq_-6" value="&amp;nbsp;Vehicle" style="swimlane;fontStyle=0;childLayout=stackLayout;horizontal=1;startSize=30;horizontalStack=0;resizeParent=1;resizeParentMax=0;resizeLast=0;collapsible=1;marginBottom=0;whiteSpace=wrap;html=1;" vertex="1" parent="1">
          <mxGeometry x="360" y="-990" width="200" height="60" as="geometry" />
        </mxCell>
        <mxCell id="tKw3tSr0yS0TjCiAPmq_-7" value="+ getMaxSpeed(): int&amp;nbsp;" style="text;strokeColor=none;fillColor=none;align=left;verticalAlign=middle;spacingLeft=4;spacingRight=4;overflow=hidden;points=[[0,0.5],[1,0.5]];portConstraint=eastwest;rotatable=0;whiteSpace=wrap;html=1;" vertex="1" parent="tKw3tSr0yS0TjCiAPmq_-6">
          <mxGeometry y="30" width="200" height="30" as="geometry" />
        </mxCell>
        <mxCell id="tKw3tSr0yS0TjCiAPmq_-8" value="Car" style="swimlane;fontStyle=0;childLayout=stackLayout;horizontal=1;startSize=30;horizontalStack=0;resizeParent=1;resizeParentMax=0;resizeLast=0;collapsible=1;marginBottom=0;whiteSpace=wrap;html=1;" vertex="1" parent="1">
          <mxGeometry x="230" y="-830" width="200" height="60" as="geometry" />
        </mxCell>
        <mxCell id="tKw3tSr0yS0TjCiAPmq_-9" value="+ getMaxSpeed(): int&amp;nbsp;" style="text;strokeColor=none;fillColor=none;align=left;verticalAlign=middle;spacingLeft=4;spacingRight=4;overflow=hidden;points=[[0,0.5],[1,0.5]];portConstraint=eastwest;rotatable=0;whiteSpace=wrap;html=1;" vertex="1" parent="tKw3tSr0yS0TjCiAPmq_-8">
          <mxGeometry y="30" width="200" height="30" as="geometry" />
        </mxCell>
        <mxCell id="tKw3tSr0yS0TjCiAPmq_-10" value="Bicycle&amp;nbsp;" style="swimlane;fontStyle=0;childLayout=stackLayout;horizontal=1;startSize=30;horizontalStack=0;resizeParent=1;resizeParentMax=0;resizeLast=0;collapsible=1;marginBottom=0;whiteSpace=wrap;html=1;" vertex="1" parent="1">
          <mxGeometry x="510" y="-830" width="200" height="60" as="geometry" />
        </mxCell>
        <mxCell id="tKw3tSr0yS0TjCiAPmq_-11" value="+ getMaxSpeed(): int&amp;nbsp;" style="text;strokeColor=none;fillColor=none;align=left;verticalAlign=middle;spacingLeft=4;spacingRight=4;overflow=hidden;points=[[0,0.5],[1,0.5]];portConstraint=eastwest;rotatable=0;whiteSpace=wrap;html=1;" vertex="1" parent="tKw3tSr0yS0TjCiAPmq_-10">
          <mxGeometry y="30" width="200" height="30" as="geometry" />
        </mxCell>
        <mxCell id="tKw3tSr0yS0TjCiAPmq_-14" style="endArrow=block;endFill=0;html=1;exitX=0.5;exitY=0;exitDx=0;exitDy=0;" edge="1" parent="1" source="tKw3tSr0yS0TjCiAPmq_-8" target="tKw3tSr0yS0TjCiAPmq_-6">
          <mxGeometry relative="1" as="geometry">
            <mxPoint x="340" y="-850" as="sourcePoint" />
            <mxPoint x="440" y="-930" as="targetPoint" />
          </mxGeometry>
        </mxCell>
        <mxCell id="tKw3tSr0yS0TjCiAPmq_-15" style="endArrow=block;endFill=0;html=1;exitX=0.365;exitY=-0.017;exitDx=0;exitDy=0;exitPerimeter=0;" edge="1" parent="1" source="tKw3tSr0yS0TjCiAPmq_-10" target="tKw3tSr0yS0TjCiAPmq_-6">
          <mxGeometry relative="1" as="geometry">
            <mxPoint x="590" y="-850" as="sourcePoint" />
            <mxPoint x="490" y="-930" as="targetPoint" />
            <Array as="points" />
          </mxGeometry>
        </mxCell>
      </root>
    </mxGraphModel>
  </diagram>
</mxfile>
